<svg width="179" height="10" viewBox="0 0 179 10" fill="none" xmlns="http://www.w3.org/2000/svg">
<g clip-path="url(#clip0_16844_38620)">
<path d="M105.585 0.195296C106.02 0.139121 107.357 0.167099 107.864 0.167295L112.441 0.172509C112.242 0.52201 111.717 1.19966 111.461 1.53648L107.133 1.52469C105.655 1.52472 104.218 1.54015 103.096 2.6585C101.769 3.98311 101.813 6.22427 103.145 7.52607C104.452 8.8038 106.143 8.63582 107.815 8.63477C108.715 8.63421 109.62 8.62897 110.522 8.6251V5.54817H106.052H104.786C105.112 5.18536 105.475 4.72839 105.792 4.34948H112.109V9.99014L108.559 9.9953C106.324 10.0032 104.132 10.1772 102.281 8.65572C101.3 7.86265 100.681 6.70842 100.563 5.45386C100.26 2.3033 102.72 0.4599 105.585 0.195296Z" fill="#7D8389"/>
<path d="M42.2808 0.171914C45.6429 0.169887 49.369 0.0967299 52.7012 0.186281C52.3407 0.652619 52.0003 1.08803 51.6181 1.53653H43.8729V4.45234L52.259 4.45728C51.9582 4.8488 51.6548 5.23833 51.3488 5.62582H47.8023H43.8729V8.62516H52.7548C52.5166 9.0093 51.9868 9.63594 51.6901 9.99019H42.2808V0.171914Z" fill="#7D8389"/>
<path d="M55.2051 0.171875L65.5671 0.172503C65.3843 0.494298 64.821 1.20934 64.5751 1.53649H56.7995V4.45229H65.1764C64.8549 4.8681 64.5718 5.23629 64.2175 5.62579H60.63H56.7995V8.62512H65.6955C65.3765 9.02529 64.9164 9.57363 64.6542 9.99016H55.2051V0.171875Z" fill="#7D8389"/>
<path d="M137.425 0.087175C137.777 0.0439601 138.298 0.0407679 138.548 0.323666C139.166 1.02271 139.681 1.86714 140.2 2.64309L143.405 7.42885C143.847 8.08576 144.707 9.44024 145.184 9.99027H134.491C134.819 9.54256 135.137 9.08744 135.444 8.62523H142.246C142.044 8.21725 141.217 7.02943 140.932 6.59021C140.037 5.13758 138.744 3.29247 137.77 1.86648C135.99 4.47057 134.093 7.47598 132.255 9.99027H130.393L134.813 3.50513C135.318 2.7635 136.753 0.42592 137.425 0.087175Z" fill="#7D8389"/>
<path d="M82.4843 0.171919L85.7583 0.163481C86.5191 0.162405 87.2831 0.146021 88.0431 0.197364C90.7459 0.380062 93.0363 2.09223 93.0315 4.99954C93.0194 6.29116 92.4982 7.52595 91.5801 8.43623C89.8253 10.1761 87.5348 10.0017 85.2694 9.99842L81.4775 9.9902V5.84103V3.86434H83.0442V8.62516L83.6219 8.62669C85.7865 8.63741 88.9161 9.04669 90.4425 7.52925C91.0944 6.87506 91.4615 5.99084 91.4655 5.06807C91.4663 4.14903 91.0984 3.26796 90.4449 2.62115C89.9915 2.17817 89.4292 1.8629 88.8152 1.70747C87.672 1.41328 82.8563 1.5335 81.4307 1.53653C81.7873 1.1018 82.1334 0.619026 82.4843 0.171919Z" fill="#7D8389"/>
<path d="M29.1117 0.172045L32.5037 0.166105C34.8165 0.162575 38.6633 -0.0919803 39.1247 2.989C39.4356 5.06458 37.7839 6.21623 35.943 6.44391C36.3627 6.94299 39.364 9.54737 39.9503 9.99032H37.7482C36.5464 8.94095 35.3768 7.77415 34.1608 6.70907H32.6346H29.6868V9.99032H28.0986V5.46858C30.529 5.47574 32.9511 5.57756 35.3725 5.34676C38.1807 5.0791 38.1672 1.9564 35.6468 1.67488C33.2458 1.40671 30.5278 1.52969 28.0835 1.53662C28.4374 1.09027 28.7802 0.635266 29.1117 0.172045Z" fill="#7D8389"/>
<path d="M68.3521 0.171875H79.6204C79.4013 0.548033 78.8577 1.20278 78.566 1.53649H74.0601V5.43815V9.99015H72.4504V1.53649H67.2158C67.5541 1.13431 67.9882 0.511632 68.3521 0.171875Z" fill="#7D8389"/>
<path d="M14.9422 0.171875H26.3071C25.9656 0.632024 25.6171 1.08695 25.2617 1.53649H20.6926L20.6927 5.35759V9.99015H19.0962V1.53649L13.9097 1.53616C14.2716 1.08127 14.6179 0.654962 14.9422 0.171875Z" fill="#7D8389"/>
<path d="M120.433 0.171875H131.764C131.416 0.624443 131.052 1.11828 130.669 1.53649H126.161V5.43815V9.99015H124.562V1.53649H119.317L120.433 0.171875Z" fill="#7D8389"/>
<path d="M147.564 0.171875H149.163V8.62512H156.171C156.025 8.78303 155.671 9.28858 155.526 9.4842C155.447 9.54946 155.205 9.88904 155.129 9.99015H147.564V0.171875Z" fill="#7D8389"/>
<path d="M177.292 0.119873H178.895V9.99954H177.292V0.119873Z" fill="#252A33"/>
<path d="M115.361 0.171875H116.949V9.99015H115.361V0.171875Z" fill="#7D8389"/>
<path d="M95.9673 0.171875H97.5438V9.99015H95.9673V0.171875Z" fill="#7D8389"/>
<path d="M157.918 8.57886H159.416V10.0696H157.918V8.57886Z" fill="#252A33"/>
<path d="M10.4493 5.96023C8.88261 5.48465 7.29141 5.6129 5.68653 5.6301C3.5191 5.65333 0.3828 5.87006 0.463469 2.77954C0.543437 -0.284139 4.79465 0.159733 6.85477 0.16687L12.2715 0.171901C11.9676 0.644835 11.6266 1.08703 11.2892 1.53652C9.61501 1.53362 3.9747 1.33459 2.63996 1.83668C2.29005 2.18823 2.02202 2.47146 2.01949 2.99325C2.01214 4.50505 3.56089 4.45906 4.65877 4.46012L7.80738 4.44571C10.0625 4.43722 12.5099 4.40441 12.5309 7.41061C12.535 8.00152 12.0775 8.65383 11.7213 9.08478C11.2528 9.65148 9.63768 9.98817 8.91278 9.9905C5.94719 10.0001 2.9697 9.99284 0 9.99018V9.92444C0.367106 9.47536 0.708536 9.06375 1.09849 8.63449C3.46833 8.54788 5.90681 8.68178 8.26711 8.6382C9.46817 8.61604 11.0588 8.55634 10.9693 7.00416C10.9428 6.54527 10.7957 6.27716 10.4583 5.96831L10.4493 5.96023Z" fill="#7D8389"/>
<path d="M168.449 0H168.88C169.087 0.0735355 169.329 0.165184 169.467 0.338647C170.255 1.33619 170.991 2.50133 171.702 3.5614L176.019 9.99958H169.424L170.437 8.63769H173.141C171.949 6.52814 169.73 3.83144 168.623 1.73091C168.31 2.37353 167.558 3.33052 167.157 3.97579C165.96 5.90147 164.226 8.08129 163.099 9.99958L161.179 9.99531C161.692 9.33579 162.341 8.31107 162.828 7.59461L166.032 2.87863C166.558 2.10572 167.607 0.233296 168.449 0Z" fill="#252A33"/>
</g>
<defs>
<clipPath id="clip0_16844_38620">
<rect width="179" height="10" fill="white"/>
</clipPath>
</defs>
</svg>
